<?xml version="1.0" encoding="utf-8"?>
<!-- Generator: Adobe Illustrator 19.1.0, SVG Export Plug-In . SVG Version: 6.00 Build 0)  -->
<svg version="1.1" id="Layer_1" xmlns="http://www.w3.org/2000/svg" xmlns:xlink="http://www.w3.org/1999/xlink" x="0px" y="0px"
	 viewBox="0 0 64 64" enable-background="new 0 0 64 64" xml:space="preserve">
<g id="Rewind-forward">
	<path d="M34.6406212,21.2315006c-0.2998199-0.2481003-0.7158203-0.3008003-1.0645218-0.1368008
		C33.2246208,21.2588005,33,21.6123009,33,22v7.8635006l-10.3598995-8.632
		c-0.2987995-0.2481003-0.7147999-0.3028011-1.0643997-0.1368008C21.2246189,21.2588005,21,21.6123009,21,22v20
		c0,0.3876991,0.2246189,0.7411995,0.5757008,0.9053001C21.711401,42.9687996,21.8558998,43,22,43
		c0.2294998,0,0.4570007-0.0791016,0.6401005-0.2313995L33,34.1348V42c0,0.3876991,0.2246208,0.7411995,0.5760994,0.9053001
		C33.7108994,42.9687996,33.8554001,43,34,43c0.2294998,0,0.4570007-0.0791016,0.6406212-0.2313995l12-10.0009995
		C46.8680992,32.5772018,47,32.2958984,47,31.9990005c0-0.2968006-0.1319008-0.5781002-0.3593788-0.7685013L34.6406212,21.2315006z
		 M23,39.8652V24.1348l9.4375,7.8642006L23,39.8652z M35,39.8652V24.1348l9.4375,7.8642006L35,39.8652z"/>
	<path d="M32,0c-17.6730995,0-32,14.3268995-32,32s14.3268995,32,32,32s32-14.3269005,32-32S49.6730995,0,32,0z M32,62
		c-16.542099,0-30-13.457901-30-30c0-16.5419998,13.4578991-30,30-30c16.5419998,0,30,13.4580002,30,30
		C62,48.542099,48.5419998,62,32,62z"/>
</g>
<g>
</g>
<g>
</g>
<g>
</g>
<g>
</g>
<g>
</g>
<g>
</g>
<g>
</g>
<g>
</g>
<g>
</g>
<g>
</g>
<g>
</g>
<g>
</g>
<g>
</g>
<g>
</g>
<g>
</g>
</svg>
