<?xml version="1.0" encoding="utf-8"?>
<!-- Generator: Adobe Illustrator 19.1.0, SVG Export Plug-In . SVG Version: 6.00 Build 0)  -->
<svg version="1.1" id="Layer_1" xmlns="http://www.w3.org/2000/svg" xmlns:xlink="http://www.w3.org/1999/xlink" x="0px" y="0px"
	 viewBox="0 0 64 64" enable-background="new 0 0 64 64" xml:space="preserve">
<g id="Urn-flat">
	<path d="M61,8h-8H39V4.5235C39,2.0293,37.1612015,0,34.9014015,0h-5.9385014c-1.0664005,0-2.1035004,0.4825-2.8476009,1.3262
		C25.3964996,2.1465001,25,3.2265999,25,4.3681998V8H11H3C2.4473,8,2,8.4473,2,9c0,0.5528002,0.4473,1,1,1h7v46.6259995
		c0,1.9434013,0.8008003,3.8456993,2.1973,5.2187996C13.6093998,63.2344017,15.4863997,64,17.4825001,64h29.1014996
		C50.6729012,64,54,60.7216988,54,56.6913986V10h7c0.5527992,0,1-0.4471998,1-1C62,8.4473,61.5527992,8,61,8z M27,4.3681998
		c0-0.6464999,0.2255993-1.2743998,0.6172009-1.7216997C27.9853992,2.2295001,28.4629002,2,28.9629002,2h5.9385014
		C36.0586014,2,37,3.1319001,37,4.5235V8H27V4.3681998z M52,56.6913986C52,59.6181984,49.5703011,62,46.5839996,62H17.4825001
		c-1.4463005,0-2.8613997-0.5760994-3.8829002-1.5810013C12.5684004,59.4043007,12,58.0577011,12,56.6259995V10h14h12h14V56.6913986
		z"/>
	<path d="M22,24c-0.5527,0-1,0.4473-1,1v26c0,0.5527992,0.4473,1,1,1c0.5527992,0,1-0.4472008,1-1V25
		C23,24.4473,22.5527992,24,22,24z"/>
	<path d="M32,24c-0.5527,0-1,0.4473-1,1v26c0,0.5527992,0.4473,1,1,1c0.5527992,0,1-0.4472008,1-1V25
		C33,24.4473,32.5527992,24,32,24z"/>
	<path d="M42,52c0.5527992,0,1-0.4472008,1-1V25c0-0.5527-0.4472008-1-1-1c-0.5527,0-1,0.4473-1,1v26
		C41,51.5527992,41.4473,52,42,52z"/>
</g>
<g>
</g>
<g>
</g>
<g>
</g>
<g>
</g>
<g>
</g>
<g>
</g>
<g>
</g>
<g>
</g>
<g>
</g>
<g>
</g>
<g>
</g>
<g>
</g>
<g>
</g>
<g>
</g>
<g>
</g>
</svg>
