<?xml version="1.0" encoding="utf-8"?>
<!-- Generator: Adobe Illustrator 19.1.0, SVG Export Plug-In . SVG Version: 6.00 Build 0)  -->
<svg version="1.1" id="Layer_1" xmlns="http://www.w3.org/2000/svg" xmlns:xlink="http://www.w3.org/1999/xlink" x="0px" y="0px"
	 viewBox="0 0 64 64" enable-background="new 0 0 64 64" xml:space="preserve">
<g id="Menu">
	<path d="M44.3507996,32h-24c-0.5527,0-1,0.4473-1,1s0.4473,1,1,1h24c0.5527992,0,1-0.4473,1-1S44.9035988,32,44.3507996,32z"/>
	<path d="M44.3507996,41h-24c-0.5527,0-1,0.4473-1,1s0.4473,1,1,1h24c0.5527992,0,1-0.4473,1-1S44.9035988,41,44.3507996,41z"/>
	<path d="M44.3507996,23h-24c-0.5527,0-1,0.4473-1,1s0.4473,1,1,1h24c0.5527992,0,1-0.4473,1-1S44.9035988,23,44.3507996,23z"/>
	<path d="M32.3507996,0c-17.6730003,0-32,14.3268003-32,32c0,17.6730995,14.3270006,32,32,32c17.6731987,0,32-14.3269005,32-32
		C64.3507996,14.3268003,50.0239983,0,32.3507996,0z M32.3507996,62c-16.5419998,0-30-13.457901-30-30s13.4580002-30,30-30
		c16.542099,0,30,13.4579,30,30S48.8928986,62,32.3507996,62z"/>
</g>
<g>
</g>
<g>
</g>
<g>
</g>
<g>
</g>
<g>
</g>
<g>
</g>
<g>
</g>
<g>
</g>
<g>
</g>
<g>
</g>
<g>
</g>
<g>
</g>
<g>
</g>
<g>
</g>
<g>
</g>
</svg>
