<?xml version="1.0" encoding="utf-8"?>
<!-- Generator: Adobe Illustrator 19.1.0, SVG Export Plug-In . SVG Version: 6.00 Build 0)  -->
<svg version="1.1" id="Layer_1" xmlns="http://www.w3.org/2000/svg" xmlns:xlink="http://www.w3.org/1999/xlink" x="0px" y="0px"
	 viewBox="0 0 64 64" enable-background="new 0 0 64 64" xml:space="preserve">
<g id="Left-arrow">
	<path d="M34.2929993,17.2929993c0.3906021-0.3906994,1.0233994-0.3906994,1.4141006,0
		c0.3905983,0.3906002,0.3905983,1.0234013,0,1.4140015L22.4141006,32l13.2929993,13.2929993
		c0.3905983,0.3906021,0.3905983,1.0233994,0,1.4140015C35.5117989,46.9023018,35.2559013,47,35,47
		c-0.2557983,0-0.5116997-0.0976982-0.7070007-0.2929993l-14-14c-0.3906002-0.3906021-0.3906002-1.0234013,0-1.4140015
		L34.2929993,17.2929993z"/>
	<path d="M0,32c0,17.6730995,14.3268995,32,32,32s32-14.3269005,32-32C64,14.3268003,49.6730995,0,32,0S0,14.3268003,0,32z M2,32
		C2,15.4579,15.4580002,2,32,2c16.542099,0,30,13.4579,30,30S48.542099,62,32,62C15.4580002,62,2,48.542099,2,32z"/>
</g>
<g>
</g>
<g>
</g>
<g>
</g>
<g>
</g>
<g>
</g>
<g>
</g>
<g>
</g>
<g>
</g>
<g>
</g>
<g>
</g>
<g>
</g>
<g>
</g>
<g>
</g>
<g>
</g>
<g>
</g>
</svg>
