<?xml version="1.0" encoding="utf-8"?>
<!-- Generator: Adobe Illustrator 19.1.0, SVG Export Plug-In . SVG Version: 6.00 Build 0)  -->
<svg version="1.1" id="Layer_1" xmlns="http://www.w3.org/2000/svg" xmlns:xlink="http://www.w3.org/1999/xlink" x="0px" y="0px"
	 viewBox="0 0 64 64" enable-background="new 0 0 64 64" xml:space="preserve">
<g id="Switches">
	<path d="M10.0138664,25.5652008V0.5044h-2v25.0566006c-4.5061159,0.4916-8.0136156,4.3064995-8.0136156,8.9433975
		c0,4.6400032,3.5119998,8.4572029,8.0223999,8.9449005v20.0463028h1.9825001v-20.050602
		c4.4969997-0.5000992,7.9950991-4.3101006,7.9950991-8.9406013C18.0002499,29.8770008,14.50665,26.0694008,10.0138664,25.5652008z
		 M9.0002508,41.5043983c-3.8598003,0-7-3.1401978-7-7s3.1401997-6.9999981,7-6.9999981s6.999999,3.1401997,6.999999,6.9999981
		S12.8600502,41.5043983,9.0002508,41.5043983z"/>
	<path d="M33.0002518,8.5629997V0.5044h-2.0000019v8.0586996c-4.4993,0.4981003-7.9997997,4.3093004-7.9997997,8.9413004
		c0,4.6359005,3.5058994,8.4498997,8.0105,8.9429989v37.046299h1.9784985v-37.046196
		c4.5048027-0.4929008,8.0110016-4.3071003,8.0110016-8.9431C41.0004501,12.8722,37.4997482,9.0607996,33.0002518,8.5629997z
		 M32.0004501,24.5044003c-3.8598003,0-7-3.1401997-7-7s3.1401997-7,7-7s7,3.1401997,7,7
		S35.8602486,24.5044003,32.0004501,24.5044003z"/>
	<path d="M63.9997482,39.5043983c0-4.632-3.5004005-8.4430981-7.9995003-8.9412975V0.5044h-2v30.0585995
		c-4.4996986,0.4976997-8.0004997,4.3091011-8.0004997,8.9413986c0,4.6388016,3.5104027,8.4550018,8.019001,8.9443016v15.0372009
		h1.9628983V48.4486008C60.4898643,47.9589996,63.9997482,44.1428986,63.9997482,39.5043983z M54.9997482,46.5043983
		c-3.8597984,0-7-3.1401978-7-7s3.1402016-7,7-7s7,3.1402016,7,7S58.8595505,46.5043983,54.9997482,46.5043983z"/>
</g>
<g>
</g>
<g>
</g>
<g>
</g>
<g>
</g>
<g>
</g>
<g>
</g>
<g>
</g>
<g>
</g>
<g>
</g>
<g>
</g>
<g>
</g>
<g>
</g>
<g>
</g>
<g>
</g>
<g>
</g>
</svg>
