<?xml version="1.0" encoding="utf-8"?>
<!-- Generator: Adobe Illustrator 19.1.0, SVG Export Plug-In . SVG Version: 6.00 Build 0)  -->
<svg version="1.1" id="Layer_1" xmlns="http://www.w3.org/2000/svg" xmlns:xlink="http://www.w3.org/1999/xlink" x="0px" y="0px"
	 viewBox="0 0 64 64" enable-background="new 0 0 64 64" xml:space="preserve">
<g id="Minus">
	<path d="M43,31.0146008H21c-0.544899,0-0.9862995,0.4414997-0.9862995,0.9863987S20.455101,32.9873009,21,32.9873009h22
		c0.5449982,0,0.9864082-0.4414024,0.9864082-0.9863014S43.5449982,31.0146008,43,31.0146008z"/>
	<path d="M32,0c-17.6730995,0-32,14.3268003-32,32c0,17.6730995,14.3268995,32,32,32s32-14.3269005,32-32
		C64,14.3268003,49.6730995,0,32,0z M32,62c-16.5419998,0-30-13.457901-30-30S15.4580002,2,32,2c16.542099,0,30,13.4579,30,30
		S48.542099,62,32,62z"/>
</g>
<g>
</g>
<g>
</g>
<g>
</g>
<g>
</g>
<g>
</g>
<g>
</g>
<g>
</g>
<g>
</g>
<g>
</g>
<g>
</g>
<g>
</g>
<g>
</g>
<g>
</g>
<g>
</g>
<g>
</g>
</svg>
