<?xml version="1.0" encoding="utf-8"?>
<!-- Generator: Adobe Illustrator 19.1.0, SVG Export Plug-In . SVG Version: 6.00 Build 0)  -->
<svg version="1.1" id="Layer_1" xmlns="http://www.w3.org/2000/svg" xmlns:xlink="http://www.w3.org/1999/xlink" x="0px" y="0px"
	 viewBox="0 0 64 64" enable-background="new 0 0 64 64" xml:space="preserve">
<path id="Full-scale" d="M63.7070999,31.2929745l-6.4258003-6.424799c-0.3905983-0.3906002-1.0234985-0.3906002-1.4141006,0
	c-0.3905983,0.3906002-0.3905983,1.0233994,0,1.4140987l4.7186012,4.717701H33V3.4140749l4.7168007,4.7167997
	c0.1953011,0.1953001,0.4511986,0.2930002,0.7070999,0.2930002c0.2557983,0,0.5116997-0.0977001,0.7070007-0.2930002
	c0.3905983-0.3905997,0.3905983-1.0233998,0-1.4140997l-6.4238014-6.4238c-0.3907013-0.3906-1.0235004-0.3906-1.4141006,0
	l-6.4263,6.4238c-0.3905983,0.3906999-0.3905983,1.0235,0,1.4140997c0.3907013,0.3906002,1.0235004,0.3906002,1.4141006,0
	L31,3.4136751v27.5862999H3.414l4.7174001-4.717701c0.3906002-0.3906994,0.3906002-1.0234985,0-1.4140987
	s-1.0235-0.3906002-1.4141002,0L0.293,31.2929745C0.1055,31.4804745,0,31.734375,0,31.9999752
	c0,0.2656994,0.1055,0.519598,0.293,0.707098l6.4242997,6.4238014c0.1953001,0.1953011,0.4512,0.2929993,0.7070003,0.2929993
	c0.2558999,0,0.5117998-0.0976982,0.7070999-0.2929993c0.3906002-0.3905983,0.3906002-1.0233994,0-1.4141006l-4.7172003-4.7168007
	H31v27.5864029l-4.7192001-4.7172012c-0.3906002-0.3905983-1.0244007-0.3905983-1.4141006,0
	c-0.3905983,0.3905983-0.3905983,1.0233994,0,1.4140015l6.4263,6.4238968
	C31.4883003,63.9023743,31.7441998,63.9999733,32,63.9999733c0.2559013,0,0.5117989-0.097599,0.7070999-0.2929001
	l6.4238014-6.4238968c0.3905983-0.3906021,0.3905983-1.0234032,0-1.4140015c-0.3906021-0.3905983-1.0234032-0.3905983-1.4141006,0
	L33,60.5859756V32.9999733h27.5856018l-4.7184029,4.7168007c-0.3905983,0.3907013-0.3905983,1.0235023,0,1.4141006
	c0.1953011,0.1953011,0.4512024,0.2929993,0.7070999,0.2929993c0.2558022,0,0.5116997-0.0976982,0.7070007-0.2929993
	l6.4258003-6.4238014C63.8945999,32.5195732,64,32.2656746,64,31.9999752C64,31.734375,63.8945999,31.4804745,63.7070999,31.2929745
	z"/>
<g>
</g>
<g>
</g>
<g>
</g>
<g>
</g>
<g>
</g>
<g>
</g>
<g>
</g>
<g>
</g>
<g>
</g>
<g>
</g>
<g>
</g>
<g>
</g>
<g>
</g>
<g>
</g>
<g>
</g>
</svg>
