<?xml version="1.0" encoding="iso-8859-1"?>
<!-- Generator: Adobe Illustrator 19.0.0, SVG Export Plug-In . SVG Version: 6.00 Build 0)  -->
<svg version="1.1" id="Capa_1" xmlns="http://www.w3.org/2000/svg" xmlns:xlink="http://www.w3.org/1999/xlink" x="0px" y="0px"
	 viewBox="0 0 512 512" style="enable-background:new 0 0 512 512;" xml:space="preserve">
<path style="fill:#303C42;" d="M413.021,151.719L198.646,21.167l-0.195,0.322C181.995,8.257,161.379,0,138.667,0
	c-52.938,0-96,43.063-96,96v35.552c0,3.563,1.792,6.896,4.75,8.875l36.516,24.346l-35.37,17.685
	c-5.271,2.635-7.396,9.042-4.771,14.313c1.875,3.74,5.646,5.896,9.542,5.896c1.604,0,3.229-0.365,4.771-1.125l27.229-13.615v18.813
	l-36.771,18.385c-5.271,2.635-7.396,9.042-4.771,14.313c1.875,3.74,5.646,5.896,9.542,5.896c1.604,0,3.229-0.365,4.771-1.125
	l27.229-13.615v18.813l-36.771,18.385c-5.271,2.635-7.396,9.042-4.771,14.313c1.875,3.74,5.646,5.896,9.542,5.896
	c1.604,0,3.229-0.365,4.771-1.125l27.229-13.615v18.813l-36.771,18.385c-5.271,2.635-7.396,9.042-4.771,14.313
	c1.875,3.74,5.646,5.896,9.542,5.896c1.604,0,3.229-0.365,4.771-1.125l27.229-13.615v23.25l-37.917,25.281
	c-2.958,1.979-4.75,5.313-4.75,8.875V416c0,52.938,43.063,96,96,96c23.227,0,44.266-8.624,60.887-22.4l0.051,0.108l129.854-62.198
	C362.583,411.635,384,377.656,384,340.927v-31.594c0-3.583-1.792-6.927-4.792-8.906c-3-1.99-6.771-2.333-10.083-0.896
	l-40.729,17.458c-2.313,0.99-4.208,2.771-5.333,5.031l-21.688,43.365l-23.354,11.677l6.854-6.854c2-2,3.125-4.708,3.125-7.542
	v-12.188c0-3.583-1.792-6.927-4.792-8.906c-3-1.979-6.771-2.344-10.083-0.896l-38.458,16.48V179.434l218.271,138.9
	c1.75,1.104,3.729,1.667,5.729,1.667c1.771,0,3.521-0.438,5.125-1.313c3.417-1.875,5.542-5.458,5.542-9.354v-57.396
	C469.333,211.271,447.75,172.865,413.021,151.719z"/>
<path style="fill:#D32F2F;" d="M64,416v-36.958l37.917-25.281c2.958-1.979,4.75-5.313,4.75-8.875V160
	c0-3.563-1.792-6.896-4.75-8.875L64,125.844V96c0-41.167,33.5-74.667,74.667-74.667s74.667,33.5,74.667,74.667v320
	c0,41.167-33.5,74.667-74.667,74.667S64,457.167,64,416z"/>
<path style="opacity:0.1;enable-background:new    ;" d="M179.635,33.698C187.408,45.477,192,59.533,192,74.667v320
	c0,41.167-33.5,74.667-74.667,74.667c-15.134,0-29.19-4.592-40.969-12.365c13.367,20.259,36.27,33.698,62.302,33.698
	c41.167,0,74.667-33.5,74.667-74.667V96C213.333,69.967,199.895,47.065,179.635,33.698z"/>
<g>
	<path style="fill:#C9D3D7;" d="M256.229,371.125c-0.146,0.719-0.229,1.458-0.229,2.208v21.333c0,3.698,1.917,7.125,5.063,9.073
		c3.125,1.938,7.042,2.115,10.375,0.469l42.667-21.333c2.063-1.031,3.729-2.708,4.771-4.771l21.521-43.052l22.271-9.542v15.417
		c0,28.563-16.646,55-42.417,67.333l-92.971,44.531c4.727-11.342,7.388-23.757,7.388-36.792v-35.633L256.229,371.125z"/>
	<path style="fill:#C9D3D7;" d="M448,289.906L234.667,154.142V96c0-11.052-2.257-21.505-5.708-31.395l172.979,105.342
		C430.354,187.24,448,218.656,448,251.938V289.906z"/>
</g>
<linearGradient id="SVGID_1_" gradientUnits="userSpaceOnUse" x1="-37.0764" y1="641.084" x2="-24.5974" y2="635.267" gradientTransform="matrix(21.3333 0 0 -21.3333 996.3334 13791.667)">
	<stop  offset="0" style="stop-color:#FFFFFF;stop-opacity:0"/>
	<stop  offset="1" style="stop-color:#FFFFFF;stop-opacity:0.35"/>
</linearGradient>
<path style="fill:url(#SVGID_1_);" d="M401.938,169.948L228.958,64.605c1.289,3.694,2.198,7.549,3.099,11.404l154.255,93.939
	c28.417,17.292,46.063,48.708,46.063,81.99v28.025L448,289.906v-37.969C448,218.656,430.354,187.24,401.938,169.948z"/>
<g>
	<path style="fill:#303C42;" d="M347.25,151.104c-4.875-3.24-11.5-1.958-14.792,2.958c-3.271,4.896-1.938,11.521,2.958,14.792
		l32,21.354c1.813,1.208,3.875,1.792,5.917,1.792c3.438,0,6.813-1.667,8.875-4.75c3.271-4.896,1.938-11.521-2.958-14.792
		L347.25,151.104z"/>
	<path style="fill:#303C42;" d="M160,405.333h-10.667v-10.667c0-5.896-4.771-10.667-10.667-10.667S128,388.771,128,394.667v10.667
		h-10.667c-5.896,0-10.667,4.771-10.667,10.667c0,5.896,4.771,10.667,10.667,10.667H128v10.667c0,5.896,4.771,10.667,10.667,10.667
		s10.667-4.771,10.667-10.667v-10.667H160c5.896,0,10.667-4.771,10.667-10.667C170.667,410.104,165.896,405.333,160,405.333z"/>
	<circle style="fill:#303C42;" cx="138.667" cy="96" r="21.333"/>
</g>
<path style="opacity:0.1;enable-background:new    ;" d="M256,394.667v-21.333v-2.111l-21.333,9.145V416
	c0,13.035-2.661,25.449-7.388,36.792l26.168-12.534C255.1,432.424,256,424.318,256,416V394.667z"/>
<path style="opacity:0.1;enable-background:new    ;" d="M256,167.719V96c0-5.315-0.479-10.508-1.167-15.637l-25.875-15.758
	c3.452,9.889,5.708,20.342,5.708,31.395v58.142L256,167.719z"/>
<linearGradient id="SVGID_2_" gradientUnits="userSpaceOnUse" x1="-47.1568" y1="637.7193" x2="-26.4741" y2="628.0754" gradientTransform="matrix(21.3333 0 0 -21.3333 996.3334 13791.667)">
	<stop  offset="0" style="stop-color:#FFFFFF;stop-opacity:0.2"/>
	<stop  offset="1" style="stop-color:#FFFFFF;stop-opacity:0"/>
</linearGradient>
<path style="fill:url(#SVGID_2_);" d="M413.021,151.719L198.646,21.167l-0.195,0.322C181.995,8.257,161.379,0,138.667,0
	c-52.938,0-96,43.063-96,96v35.552c0,3.563,1.792,6.896,4.75,8.875l36.516,24.346l-35.37,17.685
	c-5.271,2.635-7.396,9.042-4.771,14.313c1.875,3.74,5.646,5.896,9.542,5.896c1.604,0,3.229-0.365,4.771-1.125l27.229-13.615v18.813
	l-36.771,18.385c-5.271,2.635-7.396,9.042-4.771,14.313c1.875,3.74,5.646,5.896,9.542,5.896c1.604,0,3.229-0.365,4.771-1.125
	l27.229-13.615v18.813l-36.771,18.385c-5.271,2.635-7.396,9.042-4.771,14.313c1.875,3.74,5.646,5.896,9.542,5.896
	c1.604,0,3.229-0.365,4.771-1.125l27.229-13.615v18.813l-36.771,18.385c-5.271,2.635-7.396,9.042-4.771,14.313
	c1.875,3.74,5.646,5.896,9.542,5.896c1.604,0,3.229-0.365,4.771-1.125l27.229-13.615v23.25l-37.917,25.281
	c-2.958,1.979-4.75,5.313-4.75,8.875V416c0,52.938,43.063,96,96,96c23.227,0,44.266-8.624,60.887-22.4l0.051,0.108l129.854-62.198
	C362.583,411.635,384,377.656,384,340.927v-31.594c0-3.583-1.792-6.927-4.792-8.906c-3-1.99-6.771-2.333-10.083-0.896
	l-40.729,17.458c-2.313,0.99-4.208,2.771-5.333,5.031l-21.688,43.365l-23.354,11.677l6.854-6.854c2-2,3.125-4.708,3.125-7.542
	v-12.188c0-3.583-1.792-6.927-4.792-8.906c-3-1.979-6.771-2.344-10.083-0.896l-38.458,16.48V179.434l218.271,138.9
	c1.75,1.104,3.729,1.667,5.729,1.667c1.771,0,3.521-0.438,5.125-1.313c3.417-1.875,5.542-5.458,5.542-9.354v-57.396
	C469.333,211.271,447.75,172.865,413.021,151.719z"/>
<g>
</g>
<g>
</g>
<g>
</g>
<g>
</g>
<g>
</g>
<g>
</g>
<g>
</g>
<g>
</g>
<g>
</g>
<g>
</g>
<g>
</g>
<g>
</g>
<g>
</g>
<g>
</g>
<g>
</g>
</svg>
