<?xml version="1.0" encoding="utf-8"?>
<!-- Generator: Adobe Illustrator 19.1.0, SVG Export Plug-In . SVG Version: 6.00 Build 0)  -->
<svg version="1.1" id="Layer_1" xmlns="http://www.w3.org/2000/svg" xmlns:xlink="http://www.w3.org/1999/xlink" x="0px" y="0px"
	 viewBox="0 0 64 64" enable-background="new 0 0 64 64" xml:space="preserve">
<g id="Power-switch">
	<path d="M41.3743401,8.3259001c-0.5242996-0.1933002-1.1089973,0.0822001-1.2982979,0.6104002
		c-0.1903,0.5272999,0.0831985,1.1079998,0.6105003,1.2982998C51.1430397,14.0056,58.4461403,24.4055996,58.4461403,35.5251999
		c0,14.5822983-11.8638992,26.4452019-26.4461994,26.4452019S5.5538578,50.1074982,5.5538578,35.5251999
		c0-11.6427994,7.7766838-22.0964012,18.9121838-25.4193993c0.5370998-0.1595993,0.8423996-0.7255001,0.6818161-1.2625999
		c-0.1595154-0.5361996-0.7235165-0.8423996-1.2626152-0.6819C11.8965425,11.7390003,3.5241423,22.9913998,3.5241423,35.5251999
		C3.5241423,51.2263985,16.2987423,64,31.9999409,64s28.4759159-12.7736015,28.4759159-28.4748001
		C60.4758568,23.5652008,52.6207428,12.3811998,41.3743401,8.3259001z"/>
	<path d="M31.9999409,34.5043983c0.5609989,0,1.0149174-0.4538994,1.0149174-1.0147972V1.0149
		c0-0.561-0.4539185-1.0149-1.0149174-1.0149c-0.5608997,0-1.0147991,0.4539-1.0147991,1.0149v32.4747009
		C30.9851418,34.050499,31.4390411,34.5043983,31.9999409,34.5043983z"/>
</g>
<g>
</g>
<g>
</g>
<g>
</g>
<g>
</g>
<g>
</g>
<g>
</g>
<g>
</g>
<g>
</g>
<g>
</g>
<g>
</g>
<g>
</g>
<g>
</g>
<g>
</g>
<g>
</g>
<g>
</g>
</svg>
