<?xml version="1.0" encoding="utf-8"?>
<!-- Generator: Adobe Illustrator 19.1.0, SVG Export Plug-In . SVG Version: 6.00 Build 0)  -->
<svg version="1.1" id="Layer_1" xmlns="http://www.w3.org/2000/svg" xmlns:xlink="http://www.w3.org/1999/xlink" x="0px" y="0px"
	 viewBox="0 0 64 64" enable-background="new 0 0 64 64" xml:space="preserve">
<path id="Record-sign" d="M53,21c-6.0653992,0-11,4.9344997-11,11c0,3.719799,1.8606987,7.0082016,4.6951981,9H17.3047009
	C20.1392994,39.0082016,22,35.719799,22,32c0-6.0655003-4.9345989-11-10.999999-11s-11,4.9344997-11,11
	c0,6.0653992,4.9345999,11,11,11h42c6.0653992,0,11-4.9346008,11-11C64,25.9344997,59.0653992,21,53,21z M2.0000007,32
	c0-4.9629002,4.0371122-9,9-9C15.9629002,23,20,27.0370998,20,32c0,4.9627991-4.0370998,9-8.999999,9
	C6.0371127,41,2.0000007,36.9627991,2.0000007,32z M53,41c-4.9628868,0-9-4.0372009-9-9c0-4.9629002,4.0371132-9,9-9
	c4.9628983,0,9,4.0370998,9,9C62,36.9627991,57.9628983,41,53,41z"/>
<g>
</g>
<g>
</g>
<g>
</g>
<g>
</g>
<g>
</g>
<g>
</g>
<g>
</g>
<g>
</g>
<g>
</g>
<g>
</g>
<g>
</g>
<g>
</g>
<g>
</g>
<g>
</g>
<g>
</g>
</svg>
