<?xml version="1.0" encoding="iso-8859-1"?>
<!-- Generator: Adobe Illustrator 19.0.0, SVG Export Plug-In . SVG Version: 6.00 Build 0)  -->
<svg version="1.1" id="Capa_1" xmlns="http://www.w3.org/2000/svg" xmlns:xlink="http://www.w3.org/1999/xlink" x="0px" y="0px"
	 viewBox="0 0 512.001 512.001" style="enable-background:new 0 0 512.001 512.001;" xml:space="preserve">
<g>
	<g>
		<path d="M462.001,46H50C22.43,46,0,68.43,0,96v320c0,27.57,22.43,50,50,50h412.001c27.57,0,50-22.43,50-50V96
			C512.001,68.43,489.571,46,462.001,46z M492.001,416c0,16.542-13.458,30-30,30H50c-16.542,0-30-13.458-30-30V96
			c0-16.542,13.458-30,30-30h412.001c16.542,0,30,13.458,30,30V416z"/>
	</g>
</g>
<g>
	<g>
		<path d="M210,86c-93.738,0-170,76.262-170,170s76.262,170,170,170s170-76.262,170-170S303.738,86,210,86z M210,406
			c-82.71,0-150-67.29-150-150s67.29-150,150-150s150,67.29,150,150S292.71,406,210,406z"/>
	</g>
</g>
<g>
	<g>
		<path d="M210,246c-5.508,0-10,4.492-10,10s4.492,10,10,10s10-4.493,10-10C220,250.492,215.508,246,210,246z"/>
	</g>
</g>
<g>
	<g>
		<path d="M427.932,94.563c-16.542,0-30,13.458-30,30c0,13.037,8.361,24.152,20,28.28v170.049l-15.77,27.314
			c-0.909-0.101-1.824-0.164-2.743-0.164c-8.934,0-17.246,4.785-21.693,12.488l-15,25.981c-6.892,11.939-2.786,27.258,9.152,34.151
			c3.782,2.183,8.089,3.337,12.456,3.337c8.933,0,17.246-4.785,21.694-12.488l15-25.981c3.331-5.769,4.211-12.505,2.479-18.966
			c-0.822-3.068-2.201-5.883-4.023-8.363l17.107-29.631c0.878-1.52,1.34-3.245,1.34-5V152.842
			c11.64-4.128,20.001-15.243,20.001-28.279C457.932,108.021,444.474,94.563,427.932,94.563z M403.707,377.531l-15,25.98
			c-1.06,1.835-2.955,2.489-4.374,2.489c-0.874,0-1.701-0.222-2.457-0.658c-2.347-1.355-3.186-4.484-1.831-6.831l15-25.98
			c1.06-1.835,2.954-2.488,4.373-2.488c0.874,0,1.7,0.222,2.458,0.659c1.542,0.89,2.11,2.287,2.313,3.04
			C404.391,374.495,404.597,375.99,403.707,377.531z M427.932,134.563c-5.514,0-10-4.486-10-10c0-5.515,4.486-10,10-10
			c5.514,0,10,4.486,10,10S433.446,134.563,427.932,134.563z"/>
	</g>
</g>
<g>
	<g>
		<path d="M275,143.417C255.265,132.023,232.788,126,210,126c-46.296,0-89.436,24.907-112.584,65.001
			c-2.762,4.783-1.123,10.899,3.66,13.66c1.575,0.909,3.294,1.342,4.991,1.342c3.456,0,6.817-1.794,8.669-5.002
			C134.324,167.076,170.827,146,210,146c19.282,0,38.301,5.096,55,14.737c4.783,2.763,10.899,1.123,13.66-3.66
			C281.422,152.294,279.783,146.178,275,143.417z"/>
	</g>
</g>
<g>
	<g>
		<path d="M233.295,169.066c-7.595-2.034-15.432-3.065-23.295-3.065c-12.656,0-24.938,2.602-36.505,7.735
			c-5.048,2.24-7.325,8.148-5.084,13.197c1.655,3.73,5.313,5.946,9.146,5.946c1.355,0,2.732-0.277,4.051-0.862
			c8.997-3.992,18.549-6.017,28.393-6.017c6.116,0,12.211,0.802,18.117,2.385c5.333,1.43,10.818-1.736,12.248-7.071
			C241.796,175.979,238.63,170.497,233.295,169.066z"/>
	</g>
</g>
<g>
	<g>
		<path d="M160.614,192.249c-3.905-3.905-10.237-3.905-14.143,0l-0.111,0.111c-3.905,3.905-3.905,10.237,0,14.143
			c1.953,1.953,4.512,2.929,7.071,2.929c2.559,0,5.119-0.976,7.071-2.929l0.112-0.111
			C164.519,202.487,164.519,196.155,160.614,192.249z"/>
	</g>
</g>
<g>
	<g>
		<path d="M328.499,277.399c-5.335-1.431-10.819,1.736-12.247,7.071c-10.139,37.838-39.942,67.643-77.78,77.782
			c-18.627,4.99-38.316,4.99-56.941,0c-5.332-1.431-10.818,1.736-12.247,7.071c-1.43,5.335,1.736,10.818,7.071,12.247
			c11.005,2.949,22.326,4.423,33.646,4.423s22.641-1.475,33.648-4.423c44.718-11.983,79.941-47.206,91.922-91.924
			C336.999,284.313,333.833,278.829,328.499,277.399z"/>
	</g>
</g>
<g>
	<g>
		<path d="M268.049,311.951c-3.471-4.296-9.769-4.966-14.064-1.496c-7.657,6.185-16.36,10.613-25.868,13.161
			C222.209,325.198,216.114,326,210,326c-5.523,0-10,4.477-10,10s4.477,10,10,10c7.861,0,15.698-1.032,23.294-3.067
			c12.225-3.275,23.415-8.969,33.259-16.92C270.849,322.542,271.519,316.246,268.049,311.951z"/>
	</g>
</g>
<g>
	<g>
		<path d="M284.215,287.27c-4.807-2.717-10.893-1.048-13.612,3.761c-0.029,0.05-0.1,0.174-0.129,0.225
			c-2.695,4.82-0.995,10.953,3.826,13.648c1.555,0.87,3.239,1.283,4.899,1.283c3.486,0,6.861-1.826,8.687-5.092
			c0.022-0.037,0.079-0.137,0.1-0.174C290.704,296.113,289.023,289.988,284.215,287.27z"/>
	</g>
</g>
<g>
	<g>
		<path d="M452.002,396c-5.508,0-10,4.492-10,10c0,5.507,4.492,10,10,10s10-4.493,10-10C462.002,400.492,457.51,396,452.002,396z"/>
	</g>
</g>
<g>
	<g>
		<path d="M210,206c-27.57,0-50,22.43-50,50c0,27.571,22.43,50,50,50s50-22.43,50-50S237.57,206,210,206z M210,286
			c-16.542,0-30-13.458-30-30s13.458-30,30-30s30,13.458,30,30S226.542,286,210,286z"/>
	</g>
</g>
<g>
</g>
<g>
</g>
<g>
</g>
<g>
</g>
<g>
</g>
<g>
</g>
<g>
</g>
<g>
</g>
<g>
</g>
<g>
</g>
<g>
</g>
<g>
</g>
<g>
</g>
<g>
</g>
<g>
</g>
</svg>
